PathFileType	4	(X/Y/Z)	C:\Users\Basilio\Documents\Thesis Gigler\squatting_fais\c3dfiles\047\SLS_pre_front4\markers_experimental.trc
DataRate	CameraRate	NumFrames	NumMarkers	Units	OrigDataRate	OrigDataStartFrame	OrigNumFrames
200.000000	200.000000	4	60	mm	200.000000	0	1404
Frame#	Time	FHD			LBHD			RBHD			C7			T10			CLAV			LSHO			LUUPA			LMUPA			LDUPA			LLEP			LMEP			LRAD			LUL			LRFIN			RSHO			RUPA1			RMUPA			RDUPA			RLEP			RMEP			RRAD			RUL			RUFIN			LASI			RASI			USACR			LSACR			RSACR			LTHI1			LTHI2			LTHI3			LTHI4			LLFC			LMFC			LTIB1			LTIB2			LTIB3			LTIB4			LLMAL			LMMAL			LMT1			LMT2			LMT5			RTHI			RTHI2			RTHI3			RTHI4			RLFC			RMFC			RTIB1			RTIB2			RTIB3			RTIB4			RLMAL			RMMAL			RHEE			RMT1			RMT2			RMT5			
		X1	Y1	Z1	X2	Y2	Z2	X3	Y3	Z3	X4	Y4	Z4	X5	Y5	Z5	X6	Y6	Z6	X7	Y7	Z7	X8	Y8	Z8	X9	Y9	Z9	X10	Y10	Z10	X11	Y11	Z11	X12	Y12	Z12	X13	Y13	Z13	X14	Y14	Z14	X15	Y15	Z15	X16	Y16	Z16	X17	Y17	Z17	X18	Y18	Z18	X19	Y19	Z19	X20	Y20	Z20	X21	Y21	Z21	X22	Y22	Z22	X23	Y23	Z23	X24	Y24	Z24	X25	Y25	Z25	X26	Y26	Z26	X27	Y27	Z27	X28	Y28	Z28	X29	Y29	Z29	X30	Y30	Z30	X31	Y31	Z31	X32	Y32	Z32	X33	Y33	Z33	X34	Y34	Z34	X35	Y35	Z35	X36	Y36	Z36	X37	Y37	Z37	X38	Y38	Z38	X39	Y39	Z39	X40	Y40	Z40	X41	Y41	Z41	X42	Y42	Z42	X43	Y43	Z43	X44	Y44	Z44	X45	Y45	Z45	X46	Y46	Z46	X47	Y47	Z47	X48	Y48	Z48	X49	Y49	Z49	X50	Y50	Z50	X51	Y51	Z51	X52	Y52	Z52	X53	Y53	Z53	X54	Y54	Z54	X55	Y55	Z55	X56	Y56	Z56	X57	Y57	Z57	X58	Y58	Z58	X59	Y59	Z59	X60	Y60	Z60	

1	0	-256.9929199218751	1732.670043945313	-1039.454956054688	-435.1540527343751	1697.51708984375	-1069.616577148438	-414.4651489257814	1696.238891601563	-922.5808105468752	-455.8162231445314	1505.132568359375	-1009.693542480469	-425.5706481933595	1192.424682617188	-1010.703002929688	-299.5276184082032	1470.227416992188	-1034.428955078125	-383.9086303710938	1502.147705078125	-1176.826782226563	-286.4538269042969	1445.844970703125	-1308.32373046875	-265.3726806640626	1490.701904296875	-1302.429809570313	-224.9768676757813	1462.490600585938	-1336.107299804688	-168.5529022216797	1491.046997070313	-1355.624755859375	-130.8985900878907	1435.1572265625	-1311.43896484375	96.02512359619143	1534.220703125	-1364.163696289063	75.15161895751955	1548.805053710938	-1437.406860351563	174.4180145263672	1561.566284179688	-1396.52587890625	-350.9841308593751	1504.857788085938	-882.911560058594	-215.4584197998047	1453.688598632813	-772.3841552734377	-194.2419738769532	1494.564575195313	-789.2637329101565	-147.2153930664063	1463.553100585938	-767.6923828125001	-82.97349548339845	1489.491943359375	-770.8079223632815	-61.52857589721681	1431.185180664063	-824.6461181640627	178.5131530761719	1539.550537109375	-821.6458129882815	167.0710601806641	1544.96240234375	-747.3135375976564	253.9415435791016	1567.983276367188	-802.6502075195315	-227.7668151855469	990.6895141601565	-1112.1328125	-223.3379364013672	1010.284240722656	-882.4467773437502	-417.158660888672	1060.866455078125	-1003.872924804688	-415.2754821777345	1027.27197265625	-1030.739868164063	-420.525115966797	1031.713989257813	-971.5527343750002	-304.7280273437501	824.7210083007815	-1172.348754882813	-265.3314514160157	750.1064453125001	-1169.184448242188	-216.8695068359376	757.5699462890626	-1159.911499023438	-290.8556518554688	695.0997924804689	-1160.141479492188	-306.5438232421876	522.7271728515626	-1117.806030273438	-273.1259460449219	518.3322143554689	-1000.335083007813	-276.7938537597657	340.3213806152344	-1017.232543945313	-287.6839294433594	289.9095153808594	-1088.251708984375	-270.0881042480469	290.3136596679688	-1044.5380859375	-284.6340332031251	215.0554962158204	-1008.911010742188	-336.6326293945313	117.2260360717774	-1049.428344726563	-314.4324035644532	134.7740631103516	-964.4185791015627	-191.9283599853516	62.56378555297853	-978.6140136718752	-190.0415802001953	59.27041625976564	-1023.09375	-237.7041931152344	44.64875411987305	-1068.96533203125	-217.2272644042969	845.2404785156252	-788.828796386719	-152.9539947509766	830.065368652344	-798.143249511719	-131.3346099853516	852.5054931640627	-809.930358886719	-118.6495819091797	754.7104492187501	-803.4981689453127	-18.52343559265137	647.9776611328126	-829.9778442382815	-10.14481449127197	648.4937744140626	-954.6309814453127	79.69041442871095	560.9707641601564	-856.4407348632815	78.42531585693361	460.342254638672	-811.2332153320315	112.172233581543	482.8845825195314	-833.9984130859377	142.0161437988282	446.8655090332032	-869.837097167969	173.9608917236328	289.5372314453126	-836.416687011719	178.2582397460938	309.4383544921876	-926.3298950195315	131.37890625	232.3926849365235	-880.1257934570315	327.2099609375001	297.8587036132813	-928.5227661132815	332.8029174804688	308.3148193359376	-884.316833496094	307.8260498046876	269.3069152832032	-822.951599121094	
2	0.005	-257.0135498046876	1732.674072265625	-1039.46484375	-435.1278381347657	1697.471801757813	-1069.6103515625	-414.4617614746095	1696.21044921875	-922.602722167969	-455.823211669922	1505.107666015625	-1009.695007324219	-425.6050109863282	1192.422973632813	-1010.631896972656	-299.4681701660157	1470.234985351563	-1034.443725585938	-383.9035339355469	1502.087280273438	-1176.869995117188	-286.5363159179688	1445.786987304688	-1308.442504882813	-265.4878845214844	1490.661865234375	-1302.534423828125	-225.0969848632813	1462.402954101563	-1336.193969726563	-168.5837554931641	1490.942504882813	-1355.7998046875	-131.0185699462891	1435.11669921875	-1311.592041015625	95.84932708740236	1534.100952148438	-1364.544799804688	75.01412963867189	1548.719360351563	-1437.78466796875	174.2933959960938	1561.509033203125	-1396.9501953125	-350.9742736816407	1504.844848632813	-882.960388183594	-215.4038238525391	1453.728393554688	-772.465759277344	-194.2268066406251	1494.576416015625	-789.3171997070315	-147.114990234375	1463.579711914063	-767.7732543945314	-82.84352111816408	1489.47607421875	-770.896423339844	-61.47031021118165	1431.207885742188	-824.7796630859377	178.1837158203125	1540.199829101563	-821.6737060546877	167.3153991699219	1544.970458984375	-747.5557250976564	253.9425811767579	1568.01318359375	-802.7354736328127	-227.6361541748047	990.6711425781252	-1112.119262695313	-223.2471923828126	1010.295593261719	-882.4401855468752	-417.101043701172	1060.857055664063	-1003.799072265625	-415.2213439941407	1027.236328125	-1030.696044921875	-420.4253845214845	1031.661254882813	-971.5452270507815	-304.7664794921876	824.726745605469	-1172.381591796875	-265.3002624511719	750.1065063476564	-1169.1640625	-216.8685913085938	757.5678100585939	-1159.909912109375	-290.8691406250001	695.0936889648439	-1160.129516601563	-306.4714355468751	522.7260131835939	-1117.831787109375	-273.0594177246094	518.3139038085939	-1000.310424804688	-276.7547912597657	340.3163146972657	-1017.220031738281	-287.7068786621094	289.8897705078126	-1088.295776367188	-270.0699768066407	290.3042297363282	-1044.5068359375	-284.5225524902344	214.5295410156251	-1009.483764648438	-336.6434936523438	117.1690292358399	-1049.45361328125	-314.4442138671876	134.7852783203125	-964.4608154296877	-191.8501586914063	62.57350158691408	-978.643981933594	-189.9249572753907	59.31428527832033	-1023.092834472656	-237.7682495117188	44.58345413208009	-1068.929565429688	-217.1203155517579	845.1984863281252	-788.7322998046877	-152.8624420166016	830.0593872070315	-798.140319824219	-131.2541198730469	852.5045166015627	-809.905212402344	-118.5642242431641	754.6767578125001	-803.4770507812502	-18.3780746459961	647.9433593750001	-830.0290527343752	-9.98801898956299	648.4652099609376	-954.717712402344	79.83505249023439	560.9232177734376	-856.4997558593752	78.56914520263673	460.2830505371095	-811.327575683594	112.1824493408203	482.812957763672	-834.0329589843752	142.0093078613282	446.817352294922	-869.8989868164065	173.945556640625	289.4848327636719	-836.4006958007815	178.3907165527344	309.4077758789063	-926.4170532226565	131.3218841552735	232.3742065429688	-880.1614990234377	327.1650390625001	297.7515563964844	-928.600524902344	332.7897644042969	308.1550598144532	-884.3964843750002	307.7892456054688	269.1286926269532	-823.0211181640627	
3	0.01	-256.9582214355469	1732.68798828125	-1039.482543945313	-435.1963806152345	1697.42041015625	-1069.641967773438	-414.4100341796876	1696.184204101563	-922.6027832031252	-455.7685852050782	1505.09912109375	-1009.69091796875	-425.5678710937501	1192.388671875	-1010.557312011719	-299.4393615722657	1470.242919921875	-1034.545043945313	-383.9114074707032	1502.031127929688	-1176.919799804688	-286.6689758300782	1445.685668945313	-1308.502685546875	-265.6256408691407	1490.574951171875	-1302.656982421875	-225.1060791015626	1462.353515625	-1336.345703125	-168.7449493408203	1490.852783203125	-1355.922241210938	-131.1057281494141	1435.09326171875	-1311.755493164063	95.66837310791017	1534.052978515625	-1364.90625	74.82920837402345	1548.64306640625	-1438.148193359375	174.1675567626953	1561.39990234375	-1397.3115234375	-350.9129028320313	1504.821899414063	-882.9666137695315	-215.3419952392579	1453.726684570313	-772.4841308593752	-194.2138366699219	1494.575927734375	-789.348327636719	-147.1060028076172	1463.600952148438	-767.8199462890626	-82.70250701904298	1489.52978515625	-771.012878417969	-61.36440277099611	1431.228637695313	-824.7796020507815	178.244384765625	1540.268188476563	-821.8159790039065	167.4499816894532	1544.931030273438	-747.7296752929689	253.9703979492188	1568.033203125	-802.8381958007815	-227.6041259765626	990.6481933593752	-1112.125854492188	-223.149398803711	1010.255615234375	-882.4734497070315	-416.9541320800782	1060.803955078125	-1003.772827148438	-415.147186279297	1027.237182617188	-1030.709106445313	-420.4189758300782	1031.6904296875	-971.4652099609377	-304.6697387695313	824.7293701171877	-1172.393188476563	-265.3287963867188	750.1074829101564	-1169.192626953125	-216.8371124267579	757.5352172851564	-1159.947265625	-290.8127136230469	695.0951538085939	-1160.179077148438	-306.4654235839844	522.7057495117189	-1117.873413085938	-273.0200805664063	518.3174438476564	-1000.313293457031	-276.7051391601563	340.2992858886719	-1017.234497070313	-287.6839294433594	289.8891906738282	-1088.3076171875	-270.0829467773438	290.1950988769532	-1044.511962890625	-284.5625000000001	215.0303192138672	-1009.093627929688	-336.6724548339844	117.1494750976563	-1049.446411132813	-314.4484252929688	134.7952575683594	-964.4815063476565	-191.8992919921875	62.5697364807129	-978.690856933594	-189.9334869384766	59.36272048950197	-1023.137390136719	-237.7606506347657	44.6025619506836	-1068.95849609375	-217.0513610839844	845.2312011718752	-788.5939941406252	-152.4972076416016	829.9341430664065	-797.4771118164065	-131.1851654052735	852.4832153320315	-809.8775634765627	-118.5548171997071	754.6568603515626	-803.4835205078127	-18.23111152648926	647.9074096679689	-830.1060791015627	-9.748570442199709	648.5469970703126	-954.8154907226565	79.89416503906251	560.9172973632814	-856.539733886719	78.63851165771486	460.2247009277345	-811.3692016601565	112.2181243896485	482.8098449707032	-834.0379638671877	142.0418243408203	446.7561035156251	-869.938415527344	173.91650390625	289.3999328613282	-836.476501464844	178.4101104736328	309.3198547363282	-926.421569824219	131.255355834961	232.2518463134766	-880.1917724609377	327.1439208984376	297.6046752929688	-928.6743774414065	332.7368164062501	308.0009765625001	-884.4817504882815	307.8306274414063	268.9923706054688	-823.1075439453127	
4	0.015	-256.9924316406251	1732.700561523438	-1039.487060546875	-435.0870056152345	1697.425537109375	-1069.684814453125	-414.4571228027345	1696.152709960938	-922.6815185546877	-455.771697998047	1505.08447265625	-1009.689453125	-425.5552673339845	1192.407104492188	-1010.521118164063	-299.1183471679688	1470.274169921875	-1034.619018554688	-383.9206542968751	1501.977661132813	-1176.986083984375	-286.7948303222657	1445.59130859375	-1308.583740234375	-265.6236267089844	1490.512451171875	-1302.730712890625	-225.2044677734376	1462.329223632813	-1336.487915039063	-168.8389587402344	1490.822143554688	-1356.091430664063	-131.1938018798828	1435.088134765625	-1311.8857421875	95.55181121826173	1533.99267578125	-1365.27392578125	74.64398193359376	1548.508666992188	-1438.445922851563	174.0780792236328	1561.302368164063	-1397.78515625	-350.8490905761719	1504.845336914063	-883.0381469726565	-215.2168426513672	1453.747314453125	-772.5455322265627	-194.1051635742188	1494.642822265625	-789.4022216796877	-146.9892578125	1463.670043945313	-767.9117431640626	-82.65435791015626	1489.597045898438	-771.1158447265627	-61.28234100341798	1431.254638671875	-824.8341064453127	178.4736938476563	1540.302612304688	-822.071228027344	167.6043701171875	1544.982177734375	-747.9328002929689	254.0695495605469	1568.08154296875	-803.070007324219	-227.6023712158204	990.678894042969	-1112.097900390625	-223.0302429199219	1010.214599609375	-882.4563598632815	-416.857391357422	1060.794555664063	-1003.755249023438	-415.0402832031251	1027.184936523438	-1030.639404296875	-420.2837524414064	1031.672607421875	-971.4567871093752	-304.6860656738282	824.7766113281252	-1172.354370117188	-265.2871398925782	750.0850830078126	-1169.239379882813	-216.8063354492188	757.5760498046876	-1159.976928710938	-290.8603210449219	695.1177368164064	-1160.194458007813	-306.4680480957032	522.7420654296876	-1117.85400390625	-272.9803466796876	518.3049926757814	-1000.29541015625	-276.7051391601563	340.2992858886719	-1017.234497070313	-287.7213439941407	289.9130249023438	-1088.348510742188	-270.1018371582032	290.1708068847657	-1044.498901367188	-284.3205566406251	214.9203643798829	-1009.084655761719	-336.6876831054688	117.142074584961	-1049.439208984375	-314.3913574218751	134.8441772460938	-964.5545654296877	-191.9284057617188	62.57762908935548	-978.706726074219	-190.0034332275391	59.25047302246095	-1023.1689453125	-237.7218017578126	44.56750488281251	-1068.973999023438	-216.9937438964844	845.2244262695315	-788.5816650390627	-152.6534423828125	830.0598754882815	-798.1820068359377	-131.1207427978516	852.4605712890627	-809.8433837890627	-118.3019561767578	754.6892700195314	-803.6022949218752	-18.0642204284668	647.9328613281251	-830.137390136719	-9.576622009277346	648.5928344726564	-954.8181762695315	79.93511962890626	560.8977050781251	-856.5494384765627	78.80183410644533	460.1914062500001	-811.4773559570315	112.2726593017578	482.7789916992189	-834.0838623046877	142.0795135498047	446.7185974121095	-870.0006103515627	173.9389801025391	289.3324584960938	-836.4829101562502	178.3923034667969	309.2694396972657	-926.5084228515627	131.0652465820313	232.1731719970704	-880.0300903320315	327.1125793457032	297.4958496093751	-928.7258300781252	332.7564697265626	307.8993530273438	-884.540954589844	307.7573852539063	268.8108825683594	-823.1679687500002	
